<svg width="102" height="102" viewBox="0 0 102 102" fill="none" xmlns="http://www.w3.org/2000/svg">
<path d="M50.9963 101C63.8815 101 74.327 99.048 74.327 96.64C74.327 94.2321 63.8815 92.2801 50.9963 92.2801C38.1111 92.2801 27.6655 94.2321 27.6655 96.64C27.6655 99.048 38.1111 101 50.9963 101Z" fill="#B2B1B1"/>
<path d="M50.9963 101C63.8815 101 74.327 99.048 74.327 96.64C74.327 94.2321 63.8815 92.2801 50.9963 92.2801C38.1111 92.2801 27.6655 94.2321 27.6655 96.64C27.6655 99.048 38.1111 101 50.9963 101Z" stroke="black" stroke-width="2" stroke-linecap="round" stroke-linejoin="round"/>
<path d="M64.5469 94.3889C65.1746 94.4767 65.8023 94.5706 66.4265 94.6767" stroke="black" stroke-linecap="round" stroke-linejoin="round"/>
<path d="M60.7388 93.9677C61.3805 94.0222 62.0188 94.0859 62.6605 94.1556" stroke="black" stroke-linecap="round" stroke-linejoin="round"/>
<path d="M44.0952 93.8375C49.0749 93.6254 54.0756 93.5194 59.0552 93.8405" stroke="black" stroke-linecap="round" stroke-linejoin="round"/>
<path d="M40.3882 94.0162C41.0054 93.9859 41.6226 93.9526 42.2363 93.9253" stroke="black" stroke-linecap="round" stroke-linejoin="round"/>
<path d="M61.3696 99.4094C64.8063 99.1124 68.1763 98.2338 71.2132 96.8098" stroke="black" stroke-linecap="round" stroke-linejoin="round"/>
<path d="M56.8423 99.4518C57.705 99.5093 58.5676 99.5275 59.4303 99.5093" stroke="black" stroke-linecap="round" stroke-linejoin="round"/>
<path d="M27.771 97.1249C28.4162 96.737 29.0615 96.3462 29.7067 95.9584" stroke="black" stroke-linecap="round" stroke-linejoin="round"/>
<path d="M28.4688 97.7792C29.114 97.3096 29.5629 96.9854 30.2081 96.5158" stroke="black" stroke-linecap="round" stroke-linejoin="round"/>
<path d="M29.3877 98.2883C29.9137 97.8975 30.1802 97.7005 30.7027 97.3066" stroke="black" stroke-linecap="round" stroke-linejoin="round"/>
<path d="M30.2856 98.6428C30.8783 98.3731 31.4183 98.0187 31.8742 97.5945" stroke="black" stroke-linecap="round" stroke-linejoin="round"/>
<path d="M31.8145 99.0549C32.4246 98.7852 32.9682 98.4095 33.41 97.9581" stroke="black" stroke-linecap="round" stroke-linejoin="round"/>
<path d="M33.564 99.476C33.9813 99.1548 34.4021 98.8337 34.8194 98.5125" stroke="black" stroke-linecap="round" stroke-linejoin="round"/>
<path d="M34.4722 99.782C35.0052 99.4397 35.5382 99.0943 36.0713 98.7519" stroke="black" stroke-linecap="round" stroke-linejoin="round"/>
<path d="M35.8608 100.012C36.3272 99.7093 36.7901 99.4094 37.2566 99.1064" stroke="black" stroke-linecap="round" stroke-linejoin="round"/>
<path d="M37.2603 100.267C37.7863 100.076 38.2492 99.7517 38.5718 99.3427" stroke="black" stroke-linecap="round" stroke-linejoin="round"/>
<path d="M39.1362 100.552L40.1146 99.6487" stroke="black" stroke-linecap="round" stroke-linejoin="round"/>
<path d="M40.8159 100.679C41.2367 100.321 41.6611 99.9608 42.0819 99.6033" stroke="black" stroke-linecap="round" stroke-linejoin="round"/>
<path d="M42.377 100.758C42.6996 100.433 43.0187 100.109 43.3413 99.7851" stroke="black" stroke-linecap="round" stroke-linejoin="round"/>
<path d="M44.0811 100.706L44.7263 100.136" stroke="black" stroke-linecap="round" stroke-linejoin="round"/>
<path d="M44.8599 100.976C45.1159 100.794 45.3719 100.615 45.6279 100.433" stroke="black" stroke-linecap="round" stroke-linejoin="round"/>
<path d="M100.656 44.2722C100.656 45.5508 100.596 46.8082 100.477 48.0474C100.14 51.6469 99.3233 55.0767 98.0854 58.3004C96.9001 58.7731 95.6096 58.9761 94.4243 59.4487C92.2641 60.3122 90.0268 61.2242 88.5083 62.8088C86.4989 64.9085 86.043 67.8929 83.9495 69.932C82.8624 70.9955 81.3579 71.765 80.5794 73.0133C79.8886 74.1132 79.8676 75.419 79.7553 76.6673C79.6466 77.8611 79.4012 79.1366 78.4789 80.0244C70.5815 84.3722 61.0956 86.8173 50.8944 86.8173C23.4115 86.8173 1.13281 69.0685 1.13281 44.2722C1.13281 43.7299 1.14333 43.1875 1.16438 42.6513C1.60974 30.3743 7.11542 19.7487 15.9946 12.3074C16.4996 12.8679 17.4885 12.9982 18.2951 12.7922C20.9042 12.1256 23.0959 10.2531 25.4806 9.14422C26.9429 8.46553 28.4543 7.86563 30.0078 7.35055C31.2352 6.94455 32.7116 6.85669 33.7882 6.14771C34.202 5.87502 34.5176 5.45387 34.4965 5.00545C34.4369 3.7814 32.1961 4.02681 31.13 3.87835C34.458 2.74519 37.9928 1.92713 41.6925 1.46054C44.0912 1.15755 46.5599 1 49.0883 1C52.0621 1 54.9938 1.21512 57.8624 1.63627C63.1646 2.40585 68.2425 3.8632 72.9276 5.91441C67.8883 3.74807 62.2459 5.58113 56.9471 7.22027C54.9096 7.85048 52.8967 8.52613 50.8873 9.21694C49.7336 9.61385 48.6535 10.1562 47.6611 10.8046C46.9843 11.253 46.062 11.5075 45.2554 11.5832C44.775 11.6257 44.2735 11.5681 43.8667 11.3378C42.9199 10.8046 43.3968 10.0501 43.2109 9.38661C43.0216 8.72004 42.187 8.31404 41.3909 8.28981C40.5984 8.26254 39.8374 8.53219 39.1045 8.79579C36.7128 9.6593 34.3247 10.5198 31.9366 11.3802C31.0003 11.7166 29.8746 12.3346 30.1446 13.2103C30.3094 13.7375 30.9336 14.0495 31.5684 14.0283C32.68 13.992 33.441 13.3042 34.2931 12.7922C35.1348 12.2801 36.1763 11.9135 37.2038 12.2347C37.6982 12.3892 38.1121 12.7285 38.2558 13.1648C38.5714 14.1071 37.6316 14.8343 36.7163 15.2494C35.0787 15.9886 33.4761 15.31 31.7647 15.9099C26.2626 17.8368 20.55 19.8941 16.6644 23.7693C16.1945 24.2359 15.7386 24.757 16.0928 25.5357C16.44 26.3053 17.3904 26.7385 18.3442 26.6658C20.2659 26.5143 21.4091 25.1266 22.8154 24.151C25.6945 22.1544 30.0639 21.9605 33.164 23.6905C35.4539 24.9691 37.2424 27.2172 39.9566 27.4263C41.5522 27.5505 43.4634 26.99 44.4944 28.1686C45.2484 29.0321 45.038 30.2804 44.1052 31.0015C39.9917 34.1768 34.244 32.6467 29.5169 30.8955C24.3969 28.9988 18.5055 26.8627 13.6381 30.4107C12.7088 31.0894 11.9443 31.9226 11.3516 32.8376C9.09676 36.3068 9.13534 40.2122 9.29315 44.0177C9.36328 45.6841 9.46147 47.3869 10.1769 48.9352C10.8922 50.4834 12.3511 51.8741 14.2447 52.2013C17.0362 52.6831 20.1748 50.8409 22.6155 52.1044C24.0954 52.8679 24.6319 54.4889 24.7967 55.9705C24.958 57.452 24.8949 59.0094 25.6629 60.3425C26.4028 61.6211 27.8161 62.5179 28.6262 63.7632C29.4432 65.0176 29.5765 66.5022 29.9202 67.908C31.0564 72.571 34.8121 76.7067 39.7848 78.77C40.672 79.9698 43.2425 79.5123 44.4138 78.5064C45.585 77.5036 45.9287 76.0007 46.1181 74.5828C46.3039 73.1678 46.4162 71.6832 47.2753 70.4652C48.2607 69.0745 50.1825 68.0929 50.4139 66.4719C50.6278 64.9661 49.2532 63.6451 48.9376 62.1544C48.5273 60.2122 49.9756 58.3125 51.7255 57.046C53.4754 55.7765 55.5794 54.8949 57.2417 53.5375C57.8939 53.0073 58.4726 52.3589 58.8864 51.659C59.749 50.2047 58.3498 48.508 56.4702 48.7019C54.8535 48.8715 53.2439 48.8079 51.8412 48.1413C50.193 47.3536 49.162 45.869 48.3765 44.3904C47.2543 42.2695 46.4723 40.0153 46.062 37.7096C45.8936 36.7673 47.2964 36.231 47.9697 36.9855C49.0182 38.155 49.8984 39.4336 50.5822 40.7879C51.6483 42.8997 52.4829 45.4448 56.2247 45.2872C57.403 45.2357 58.5392 44.8903 59.5456 44.354C61.6673 43.2209 64.613 42.1998 65.1355 39.7396C65.3564 38.7034 64.8444 37.6157 63.7608 37.14C61.4744 36.1371 59.472 38.9791 56.9962 36.9612C56.372 36.4552 55.9371 35.7947 55.6952 35.0827C55.1271 33.4072 56.9857 31.8741 58.8969 32.4437L68.8562 35.4099C71.2408 36.1189 73.7307 36.8915 75.4069 38.5155C77.7074 40.7455 77.9178 43.9814 78.7173 46.887C79.0084 47.9293 79.6221 49.1503 81.0669 49.0018C81.5929 48.9442 82.0628 48.6807 82.3925 48.3231C83.8829 46.6961 83.9074 44.5601 84.6824 42.6634C85.5275 40.597 87.9788 38.5579 90.5984 40.2122C91.2542 40.6273 91.7521 41.203 92.1028 41.8362L94.5716 46.284C95.2098 47.4384 97.2788 46.8173 96.9036 45.5811C96.9036 45.569 96.8966 45.5569 96.8931 45.5478C96.5459 44.448 95.8165 43.433 95.7358 42.2968C95.6236 40.7122 96.7809 39.3003 97.6856 37.9186C98.4326 36.7794 99.0287 35.3706 98.65 34.1616L99.2321 34.0374C100.161 37.2945 100.656 40.7182 100.656 44.2722Z" fill="#F3EFEF"/>
<path d="M99.2327 34.0374L98.6506 34.1617C98.57 33.9072 98.4472 33.6587 98.2684 33.4224C97.6477 32.6013 96.5395 32.1771 95.6663 31.5499C93.408 29.9259 93.1905 26.4356 94.979 24.4207C96.8236 27.4203 98.2649 30.638 99.2327 34.0374Z" fill="#F3EFEF"/>
<path d="M98.6505 34.1616C99.0293 35.3705 98.4331 36.7794 97.6862 37.9186C96.7814 39.3002 95.6241 40.7121 95.7364 42.2967C95.817 43.4329 96.5464 44.4479 96.8936 45.5478C96.8936 45.5569 96.9006 45.569 96.9041 45.5811C97.2794 46.8173 95.2104 47.4384 94.5721 46.284L92.1033 41.8362C91.7526 41.203 91.2547 40.6273 90.5989 40.2122C87.9793 38.5579 85.5281 40.597 84.6829 42.6634C83.9079 44.56 83.8834 46.6961 82.393 48.3231C82.0633 48.6806 81.5934 48.9442 81.0674 49.0018C79.6226 49.1503 79.0089 47.9292 78.7178 46.887C77.9183 43.9813 77.7079 40.7455 75.4074 38.5155C73.7312 36.8915 71.2413 36.1189 68.8567 35.4099L58.8974 32.4437C56.9862 31.8741 55.1276 33.4072 55.6957 35.0827C55.9377 35.7947 56.3725 36.4552 56.9967 36.9612C59.4725 38.9791 61.4749 36.1371 63.7613 37.14C64.8449 37.6156 65.3569 38.7034 65.136 39.7396C64.6135 42.1998 61.6678 43.2209 59.5462 44.354C58.5397 44.8903 57.4035 45.2357 56.2252 45.2872C52.4835 45.4448 51.6488 42.8997 50.5828 40.7879C49.8989 39.4335 49.0187 38.155 47.9702 36.9854C47.2969 36.231 45.8942 36.7673 46.0625 37.7096C46.4728 40.0153 47.2548 42.2695 48.377 44.3904C49.1625 45.8689 50.1935 47.3536 51.8417 48.1413C53.2444 48.8079 54.854 48.8715 56.4707 48.7018C58.3503 48.5079 59.7495 50.2046 58.8869 51.659C58.4731 52.3589 57.8945 53.0073 57.2422 53.5375C55.58 54.8948 53.4759 55.7765 51.726 57.046C49.9761 58.3125 48.5278 60.2122 48.9381 62.1544C49.2537 63.645 50.6284 64.966 50.4144 66.4719C50.183 68.0928 48.2613 69.0745 47.2759 70.4652C46.4167 71.6832 46.3045 73.1678 46.1186 74.5828C45.9292 76.0007 45.5856 77.5035 44.4143 78.5064C43.243 79.5123 40.6725 79.9698 39.7853 78.77C34.8127 76.7067 31.0569 72.571 29.9207 67.908C29.577 66.5022 29.4438 65.0176 28.6267 63.7632C27.8166 62.5179 26.4034 61.6211 25.6634 60.3425C24.8954 59.0094 24.9586 57.452 24.7972 55.9704C24.6324 54.4888 24.0959 52.8679 22.616 52.1044C20.1753 50.8409 17.0367 52.6831 14.2453 52.2013C12.3516 51.8741 10.8928 50.4834 10.1774 48.9351C9.462 47.3869 9.36381 45.6841 9.29367 44.0177C9.13586 40.2122 9.09729 36.3068 11.3522 32.8376C11.9448 31.9226 12.7093 31.0894 13.6386 30.4107C18.506 26.8627 24.3975 28.9988 29.5174 30.8955C34.2446 32.6467 39.9922 34.1768 44.1057 31.0015C45.0385 30.2804 45.2489 29.0321 44.495 28.1686C43.464 26.99 41.5528 27.5505 39.9572 27.4263C37.2429 27.2172 35.4544 24.9691 33.1645 23.6905C30.0645 21.9604 25.695 22.1543 22.8159 24.151C21.4097 25.1266 20.2665 26.5143 18.3447 26.6658C17.3909 26.7385 16.4405 26.3052 16.0934 25.5357C15.7392 24.757 16.1951 24.2359 16.665 23.7693C20.5505 19.8941 26.2631 17.8368 31.7653 15.9098C33.4766 15.3099 35.0792 15.9886 36.7169 15.2493C37.6321 14.8342 38.572 14.1071 38.2564 13.1648C38.1126 12.7285 37.6988 12.3892 37.2043 12.2346C36.1768 11.9135 35.1353 12.2801 34.2937 12.7921C33.4415 13.3042 32.6805 13.992 31.5689 14.0283C30.9342 14.0495 30.3099 13.7374 30.1451 13.2102C29.8751 12.3346 31.0008 11.7165 31.9371 11.3802C34.3252 10.5197 36.7134 9.65927 39.105 8.79577C39.8379 8.53217 40.5989 8.26251 41.3914 8.28978C42.1875 8.31402 43.0221 8.72002 43.2115 9.38658C43.3973 10.0501 42.9204 10.8046 43.8672 11.3378C44.274 11.5681 44.7755 11.6256 45.2559 11.5832C46.0625 11.5075 46.9848 11.253 47.6616 10.8046C48.654 10.1562 49.7341 9.61382 50.8879 9.21691C52.8973 8.52611 54.9102 7.85046 56.9476 7.22025C62.2464 5.5811 67.8888 3.74804 72.9281 5.91438C82.2702 9.99255 90.0589 16.4189 94.9789 24.4176C93.1904 26.4355 93.4079 29.9259 95.6662 31.5499C96.5394 32.1771 97.6476 32.6013 98.2683 33.4223C98.4471 33.6587 98.5699 33.9071 98.6505 34.1616Z" fill="#A2E363"/>
<path d="M94.4249 59.4487C95.6102 58.9761 96.9007 58.7731 98.086 58.3004C94.5477 67.5021 87.5691 75.0221 78.4795 80.0244C79.4018 79.1367 79.6473 77.8611 79.756 76.6673C79.8682 75.419 79.8892 74.1132 80.5801 73.0133C81.3586 71.765 82.863 70.9955 83.9501 69.932C86.0437 67.8929 86.4996 64.9085 88.509 62.8088C90.0274 61.2242 92.2647 60.3122 94.4249 59.4487Z" fill="#A2E363"/>
<path d="M34.4965 5.00546C34.5176 5.45388 34.2019 5.87503 33.7881 6.14771C32.7116 6.8567 31.2352 6.94456 30.0078 7.35056C28.4543 7.86563 26.9429 8.46554 25.4805 9.14423C23.0959 10.2531 20.9042 12.1256 18.2951 12.7922C17.4885 12.9982 16.4996 12.8679 15.9946 12.3074C20.308 8.68672 25.4174 5.82049 31.1265 3.87836C32.1926 4.02682 34.4334 3.7814 34.493 5.00546H34.4965Z" fill="#A2E363"/>
<g style="mix-blend-mode:multiply" opacity="0.25">
<path d="M13.2738 31.4559C19.4703 19.2336 30.0609 8.96541 42.8292 1.37262C18.9794 4.43579 1.84865 21.0727 1.03156 42.8876C1.01052 43.4269 1 43.9753 1 44.5206C1 53.4254 3.93519 61.4241 9.00252 68.0413C5.90251 55.9553 7.4946 42.8542 13.2738 31.4529V31.4559Z" fill="#606060"/>
<path d="M92.1453 20.6849C93.029 43.5784 84.0727 66.7627 67.2295 84.4661C85.6192 79.2972 99.1274 65.8447 100.818 48.317C100.94 47.09 101 45.8386 101 44.5722C101 35.5735 97.7036 27.4172 92.1488 20.6879L92.1453 20.6849Z" fill="#606060"/>
</g>
<path d="M57.8625 1.63627C54.9939 1.21512 52.0622 1 49.0849 1C46.56 1 44.0912 1.15755 41.6891 1.46054C18.5828 4.38131 1.94999 20.9273 1.16095 42.6513C1.13991 43.1875 1.12939 43.7299 1.12939 44.2722C1.12939 69.0685 23.4081 86.8173 50.8874 86.8173C76.9535 86.8173 98.3415 70.853 100.474 48.0474C100.593 46.8082 100.649 45.5508 100.649 44.2722C100.649 22.1574 81.4948 5.07211 57.859 1.63627H57.8625Z" stroke="black" stroke-width="2" stroke-linecap="round" stroke-linejoin="round"/>
<path d="M94.9791 24.4177C93.1906 26.4295 93.4081 29.9259 95.6664 31.5499C96.5396 32.1771 97.6513 32.6013 98.272 33.4224C99.2749 34.7525 98.5981 36.5371 97.6899 37.9187C96.7816 39.3003 95.6279 40.7122 95.7401 42.2968C95.8207 43.433 96.5502 44.451 96.8938 45.5478C96.8938 45.5599 96.9008 45.569 96.9043 45.5811C97.2796 46.8203 95.2141 47.4415 94.5723 46.2841L92.1035 41.8363C91.7529 41.203 91.2549 40.6273 90.5991 40.2123C87.9795 38.558 85.5283 40.597 84.6831 42.6634C83.9081 44.5601 83.8801 46.6991 82.3932 48.3262C82.0636 48.6837 81.5936 48.9473 81.0676 49.0018C79.6228 49.1533 79.0056 47.9293 78.7181 46.887C77.915 43.9844 77.7081 40.7455 75.4076 38.5155C73.7314 36.8915 71.2381 36.1189 68.8569 35.41L58.8976 32.4437C56.9864 31.8741 55.1278 33.4072 55.6959 35.0827C55.9379 35.7947 56.3692 36.4553 56.9934 36.9643C59.4727 38.9821 61.4716 36.1401 63.758 37.14C64.8452 37.6157 65.3536 38.7064 65.1327 39.7396C64.6067 42.1998 61.661 43.2209 59.5429 44.3541C58.5399 44.8903 57.4037 45.2357 56.2219 45.2872C52.4802 45.4448 51.6455 42.8997 50.5795 40.7879C49.8957 39.4336 49.0154 38.155 47.9704 36.9855C47.2971 36.231 45.8909 36.7704 46.0592 37.7096C46.473 40.0153 47.2515 42.2695 48.3772 44.3904C49.1627 45.869 50.1902 47.3536 51.8384 48.1383C53.2411 48.8079 54.8508 48.8685 56.4674 48.7019C58.347 48.5049 59.7463 50.2047 58.8836 51.659C58.4698 52.3589 57.8877 53.0043 57.2354 53.5375C55.5732 54.8918 53.4726 55.7766 51.7192 57.043C49.9693 58.3125 48.521 60.2092 48.9313 62.1514C49.2469 63.642 50.6181 64.9661 50.4041 66.4689C50.1727 68.0898 48.2545 69.0715 47.2691 70.4622C46.4099 71.6772 46.2977 73.1648 46.1083 74.5798C45.9189 75.9947 45.5753 77.5005 44.404 78.5034C43.2327 79.5063 40.6657 79.9668 39.7785 78.767C34.8059 76.7037 31.0501 72.568 29.9139 67.905C29.5702 66.4992 29.437 65.0146 28.6234 63.7632C27.8133 62.518 26.3966 61.6181 25.6601 60.3425C24.8921 59.0094 24.9553 57.4521 24.7904 55.9705C24.6256 54.4889 24.0891 52.8679 22.6127 52.1044C20.172 50.844 17.0299 52.6831 14.2385 52.2013C12.3448 51.8741 10.886 50.4834 10.1706 48.9352C9.4552 47.3869 9.35701 45.6842 9.28687 44.0177C9.12906 40.2123 9.09049 36.3068 11.3419 32.8376C11.938 31.9226 12.699 31.0864 13.6283 30.4107C18.4957 26.8597 24.3907 28.9958 29.5071 30.8955C34.2343 32.6467 39.9819 34.1768 44.0954 31.0015C45.0282 30.2804 45.2386 29.0321 44.4847 28.1686C43.4572 26.99 41.5425 27.5505 39.9469 27.4293C37.2326 27.2203 35.4441 24.9691 33.1542 23.6935C30.0542 21.9635 25.6847 22.1574 22.8091 24.1541C21.3994 25.1297 20.2597 26.5174 18.3344 26.6689C17.3841 26.7416 16.4337 26.3083 16.0831 25.5387C15.7289 24.7601 16.1883 24.2389 16.6547 23.7723C20.5402 19.8972 26.2563 17.8399 31.755 15.9129C33.4663 15.313 35.0689 15.9917 36.7066 15.2494C37.6218 14.8343 38.5617 14.1071 38.2496 13.1648C38.1058 12.7285 37.6885 12.3892 37.194 12.2347C36.1665 11.9135 35.125 12.2801 34.2834 12.7891C33.4347 13.3042 32.6737 13.989 31.5586 14.0253C30.9274 14.0465 30.2996 13.7345 30.1348 13.2073C29.8648 12.3316 30.987 11.7166 31.9268 11.3772C34.3149 10.5168 36.7031 9.65628 39.0947 8.79278C39.8276 8.52918 40.5886 8.25952 41.3846 8.28376C42.1807 8.308 43.0153 8.714 43.2047 9.3836C43.3905 10.0471 42.9136 10.8016 43.8604 11.3348C44.2672 11.5621 44.7652 11.6226 45.2491 11.5772C46.0557 11.5015 46.978 11.2469 47.6548 10.8016C48.6437 10.1501 49.7238 9.61083 50.8811 9.21089C52.887 8.52009 54.9034 7.84443 56.9373 7.21726C62.2361 5.57811 67.8785 3.74505 72.9213 5.91139" stroke="black" stroke-width="2" stroke-linecap="round" stroke-linejoin="round"/>
<path d="M16.0308 12.3468C16.4866 13.0224 17.423 13.0133 18.2927 12.7921C20.9017 12.1256 23.0935 10.2531 25.4781 9.1442C26.9404 8.46552 28.4554 7.86561 30.0054 7.35054C31.2363 6.94151 32.7091 6.85667 33.7857 6.14466C34.1995 5.87198 34.5151 5.45386 34.4941 5.00544C34.431 3.69958 32.1831 4.06619 31.2257 3.84198" stroke="black" stroke-width="2" stroke-linecap="round" stroke-linejoin="round"/>
<path d="M78.3604 80.1365C79.3808 79.2488 79.6438 77.9156 79.7561 76.6673C79.8683 75.419 79.8893 74.1132 80.5802 73.0133C81.3622 71.765 82.8631 70.9955 83.9537 69.932C86.0438 67.8929 86.5032 64.9085 88.5126 62.8088C90.031 61.2242 92.2648 60.3122 94.4285 59.4487C95.6138 58.9761 96.9043 58.7761 98.0896 58.3004" stroke="black" stroke-width="2" stroke-linecap="round" stroke-linejoin="round"/>
<path d="M13.3228 18.8064C13.5086 18.6216 13.698 18.4428 13.8909 18.261" stroke="black" stroke-linecap="round" stroke-linejoin="round"/>
<path d="M12.1196 20.1001C12.2985 19.8941 12.4808 19.688 12.6667 19.485" stroke="black" stroke-linecap="round" stroke-linejoin="round"/>
<path d="M9.6867 63.3481C2.41009 50.7743 1.3861 34.8736 10.7177 21.8938C10.9632 21.5514 11.2157 21.2181 11.4752 20.8879" stroke="black" stroke-linecap="round" stroke-linejoin="round"/>
<path d="M10.9731 65.4387C10.7978 65.169 10.6224 64.8994 10.4541 64.6267" stroke="black" stroke-linecap="round" stroke-linejoin="round"/>
<path d="M56.9336 3.52386C57.5508 3.57537 58.1645 3.639 58.7782 3.70869" stroke="black" stroke-linecap="round" stroke-linejoin="round"/>
<path d="M39.6484 4.25712C44.572 3.40574 49.6253 3.10578 54.64 3.36635" stroke="black" stroke-linecap="round" stroke-linejoin="round"/>
<path d="M94.481 56.2128C94.9544 56.0552 95.4313 55.9007 95.9047 55.7523" stroke="black" stroke-linecap="round" stroke-linejoin="round"/>
<path d="M83.4272 66.3385C83.5395 66.1719 83.6482 66.0052 83.7534 65.8325C84.7458 64.1995 85.2858 62.3634 86.4887 60.8394C87.9615 58.9669 90.9178 57.5065 93.3515 56.5794" stroke="black" stroke-linecap="round" stroke-linejoin="round"/>
<path d="M81.9268 68.2293C82.2213 67.902 82.5054 67.5657 82.7754 67.2264" stroke="black" stroke-linecap="round" stroke-linejoin="round"/>
<path d="M80.4712 69.7835C80.6921 69.5563 80.9096 69.326 81.127 69.0958" stroke="black" stroke-linecap="round" stroke-linejoin="round"/>
<path d="M52.0024 59.3002C52.3917 59.0003 52.8721 58.8124 53.3982 58.8155" stroke="black" stroke-linecap="round" stroke-linejoin="round"/>
<path d="M49.4673 71.9105C49.9232 71.4197 50.3931 70.9379 50.8279 70.435C51.7642 69.3533 52.5603 68.0899 52.5498 66.7386C52.5392 65.7145 52.0658 64.7419 51.6485 63.7814C51.2312 62.821 50.856 61.7969 51.0559 60.7849" stroke="black" stroke-linecap="round" stroke-linejoin="round"/>
<path d="M47.644 74.3768C47.7563 74.1374 47.886 73.9071 48.0298 73.686C48.1315 73.5314 48.2367 73.3799 48.3454 73.2285" stroke="black" stroke-linecap="round" stroke-linejoin="round"/>
<path d="M47.5069 77.5732C47.2965 77.1551 47.2018 76.7128 47.1948 76.2643" stroke="black" stroke-linecap="round" stroke-linejoin="round"/>
<path d="M71.5569 38.3883C71.2272 38.2187 70.8836 38.0702 70.5259 37.946" stroke="black" stroke-linecap="round" stroke-linejoin="round"/>
<path d="M76.6596 47.1263C76.5018 46.7385 76.3616 46.3477 76.2388 45.9598C75.6286 44.0147 75.2534 41.9514 73.9243 40.2971C73.6508 39.9577 73.3422 39.6396 72.9985 39.3517" stroke="black" stroke-linecap="round" stroke-linejoin="round"/>
<path d="M78.0342 49.4472C77.7185 49.0806 77.445 48.6776 77.2065 48.2595" stroke="black" stroke-linecap="round" stroke-linejoin="round"/>
<path d="M79.9174 50.8985C79.6298 50.7622 79.3598 50.6046 79.1108 50.4289" stroke="black" stroke-linecap="round" stroke-linejoin="round"/>
<path d="M21.7886 30.6561C22.4969 30.7501 23.1948 30.9167 23.8541 31.1591" stroke="black" stroke-linecap="round" stroke-linejoin="round"/>
<path d="M17.0542 31.0803C17.9344 30.7804 18.8742 30.6198 19.8176 30.5743" stroke="black" stroke-linecap="round" stroke-linejoin="round"/>
<path d="M48.0266 64.8661C47.8758 64.5025 47.6233 64.1692 47.2866 63.9147" stroke="black" stroke-linecap="round" stroke-linejoin="round"/>
<path d="M43.9795 73.0921C44.5406 70.5288 47.5038 69.129 48.1421 66.6234" stroke="black" stroke-linecap="round" stroke-linejoin="round"/>
<path d="M43.4043 76.0159C43.5446 75.6009 43.6357 75.1736 43.7024 74.7434" stroke="black" stroke-linecap="round" stroke-linejoin="round"/>
<path d="M21.9146 21.8332C24.8813 20.0668 28.1041 18.6186 31.4811 17.5369" stroke="black" stroke-linecap="round" stroke-linejoin="round"/>
<path d="M78.4932 10.5349C78.907 10.8288 79.3102 11.1409 79.696 11.462" stroke="black" stroke-linecap="round" stroke-linejoin="round"/>
<path d="M75.0918 8.61102C75.716 8.88371 76.3227 9.18669 76.9048 9.51998" stroke="black" stroke-linecap="round" stroke-linejoin="round"/>
<path d="M63.9614 7.07486C67.1246 6.68704 70.3894 6.97791 73.3772 7.95958" stroke="black" stroke-linecap="round" stroke-linejoin="round"/>
<path d="M60.1284 7.86868C60.7211 7.72022 61.3172 7.57781 61.9169 7.45056" stroke="black" stroke-linecap="round" stroke-linejoin="round"/>
<path d="M89.1608 19.9547C88.8136 19.5336 88.4805 19.1033 88.1719 18.664" stroke="black" stroke-linecap="round" stroke-linejoin="round"/>
<path d="M91.623 26.0053C91.8509 25.1964 92.5347 23.8814 92.1981 23.0664C91.8965 22.3453 90.8304 22.012 90.3921 21.3515" stroke="black" stroke-linecap="round" stroke-linejoin="round"/>
<path d="M91.7103 30.4167C91.2299 29.535 91.1422 28.5534 91.2755 27.5959" stroke="black" stroke-linecap="round" stroke-linejoin="round"/>
<path d="M93.0708 61.9756C93.5407 61.7454 94.0246 61.5393 94.5156 61.3484" stroke="black" stroke-linecap="round" stroke-linejoin="round"/>
<path d="M90.6763 63.6784C90.9533 63.3723 91.2689 63.0875 91.6126 62.8361" stroke="black" stroke-linecap="round" stroke-linejoin="round"/>
<path d="M84.9282 71.7893C87.3234 69.9744 88.2983 67.4445 89.6834 65.06" stroke="black" stroke-linecap="round" stroke-linejoin="round"/>
<path d="M21.5322 9.56231C24.0887 7.95346 26.9257 6.67184 29.9135 5.78107" stroke="black" stroke-linecap="round" stroke-linejoin="round"/>
<path d="M45.5014 43.9602C44.8386 42.3604 44.4178 40.688 44.26 38.9943C44.1478 37.7854 43.8672 35.7948 45.3155 35.0555" stroke="black" stroke-linecap="round" stroke-linejoin="round"/>
<path d="M47.7772 47.9384C47.2723 47.2657 46.8164 46.5628 46.4131 45.8387" stroke="black" stroke-linecap="round" stroke-linejoin="round"/>
<path d="M89.438 37.3611C90.5777 37.4945 91.6718 37.8671 92.6081 38.4458" stroke="black" stroke-linecap="round" stroke-linejoin="round"/>
<path d="M82.4351 40.0607C83.5397 38.6003 85.3703 37.6338 87.3586 37.3763" stroke="black" stroke-linecap="round" stroke-linejoin="round"/>
<path d="M81.2673 44.2207C81.1586 43.4451 81.2393 42.6573 81.4777 41.9029" stroke="black" stroke-linecap="round" stroke-linejoin="round"/>
<path d="M29.5034 66.687C29.9698 66.2144 30.4362 65.7417 30.9026 65.2721" stroke="black" stroke-linecap="round" stroke-linejoin="round"/>
<path d="M29.9312 67.7565C30.3941 67.3172 30.8605 66.8748 31.3234 66.4355" stroke="black" stroke-linecap="round" stroke-linejoin="round"/>
<path d="M30.3379 69.123C30.6605 68.6019 31.1024 68.1383 31.6284 67.7626" stroke="black" stroke-linecap="round" stroke-linejoin="round"/>
<path d="M30.7798 70.4652C31.2532 69.9623 31.7231 69.4624 32.1965 68.9594" stroke="black" stroke-linecap="round" stroke-linejoin="round"/>
<path d="M31.355 71.8135C31.8179 71.2227 32.2808 70.6288 32.7437 70.038" stroke="black" stroke-linecap="round" stroke-linejoin="round"/>
<path d="M32.3296 72.7588C32.7013 72.2528 33.0695 71.7499 33.4412 71.2439" stroke="black" stroke-linecap="round" stroke-linejoin="round"/>
<path d="M33.0874 74.0738C33.4486 73.4072 33.901 72.78 34.4305 72.2043" stroke="black" stroke-linecap="round" stroke-linejoin="round"/>
<path d="M33.957 74.9282C34.2726 74.4404 34.5883 73.9556 34.9004 73.4678" stroke="black" stroke-linecap="round" stroke-linejoin="round"/>
<path d="M34.8579 75.5432C35.163 75.0857 35.4716 74.6282 35.7767 74.1707" stroke="black" stroke-linecap="round" stroke-linejoin="round"/>
<path d="M35.9067 76.0947C36.1031 75.6736 36.2995 75.2524 36.4924 74.8343" stroke="black" stroke-linecap="round" stroke-linejoin="round"/>
<path d="M36.4683 76.8946C36.8189 76.3068 37.1696 75.716 37.5238 75.1282" stroke="black" stroke-linecap="round" stroke-linejoin="round"/>
<path d="M37.6392 77.4521C37.8916 76.8976 38.1441 76.3401 38.3966 75.7856" stroke="black" stroke-linecap="round" stroke-linejoin="round"/>
<path d="M38.3862 77.8762C38.6878 77.4005 38.9894 76.9248 39.291 76.4492" stroke="black" stroke-linecap="round" stroke-linejoin="round"/>
<path d="M39.3501 78.3671C39.543 77.9459 39.7394 77.5248 39.9322 77.1036" stroke="black" stroke-linecap="round" stroke-linejoin="round"/>
<path d="M40.1006 79.1215C40.3881 78.4641 40.6792 77.8066 40.9668 77.1491" stroke="black" stroke-linecap="round" stroke-linejoin="round"/>
<path d="M41.0161 79.0882C41.2651 78.6912 41.4334 78.255 41.5036 77.8096" stroke="black" stroke-linecap="round" stroke-linejoin="round"/>
<path d="M9.85498 35.7038C10.651 35.2826 11.4471 34.8585 12.2431 34.4373" stroke="black" stroke-linecap="round" stroke-linejoin="round"/>
<path d="M9.57422 37.2793C10.3106 36.9097 11.0436 36.5401 11.78 36.1704" stroke="black" stroke-linecap="round" stroke-linejoin="round"/>
<path d="M9.30762 38.7215C10.009 38.3216 10.7103 37.9217 11.4117 37.5217" stroke="black" stroke-linecap="round" stroke-linejoin="round"/>
<path d="M9.38477 40.291C10.0546 39.8638 10.7244 39.4366 11.3942 39.0094" stroke="black" stroke-linecap="round" stroke-linejoin="round"/>
<path d="M9.20264 41.7969C9.99868 41.3727 10.7912 40.9485 11.5873 40.5244" stroke="black" stroke-linecap="round" stroke-linejoin="round"/>
<path d="M9.20947 43.0512L11.0541 42.1453" stroke="black" stroke-linecap="round" stroke-linejoin="round"/>
<path d="M9.25146 44.2965C9.85113 44.0329 10.4508 43.7693 11.0505 43.5057" stroke="black" stroke-linecap="round" stroke-linejoin="round"/>
<path d="M9.44092 45.6417C9.96694 45.4266 10.493 45.2115 11.019 44.9963" stroke="black" stroke-linecap="round" stroke-linejoin="round"/>
<path d="M9.4375 46.8476C9.99157 46.5689 10.5492 46.2931 11.1032 46.0144" stroke="black" stroke-linecap="round" stroke-linejoin="round"/>
<path d="M9.7915 47.9505C10.2228 47.705 10.6577 47.4566 11.089 47.2112" stroke="black" stroke-linecap="round" stroke-linejoin="round"/>
<path d="M10.3105 49.0775C10.7033 48.8503 11.0996 48.6231 11.4923 48.3958" stroke="black" stroke-linecap="round" stroke-linejoin="round"/>
<path d="M11.103 50.1411C11.4818 49.8381 11.864 49.5351 12.2427 49.2321" stroke="black" stroke-linecap="round" stroke-linejoin="round"/>
<path d="M12.022 51.2742C12.3165 50.8713 12.6883 50.5107 13.1161 50.2108" stroke="black" stroke-linecap="round" stroke-linejoin="round"/>
<path d="M12.9092 51.6227C13.3826 51.1621 13.856 50.6986 14.3259 50.238" stroke="black" stroke-linecap="round" stroke-linejoin="round"/>
<path d="M13.8735 52.0014C14.1786 51.7075 14.4802 51.4166 14.7853 51.1227" stroke="black" stroke-linecap="round" stroke-linejoin="round"/>
<path d="M14.7954 52.2346C15.0023 52.0983 15.1777 51.9226 15.3004 51.7226" stroke="black" stroke-linecap="round" stroke-linejoin="round"/>
<path d="M23.3735 52.6346C23.6365 52.4468 23.8996 52.2559 24.1626 52.0681" stroke="black" stroke-linecap="round" stroke-linejoin="round"/>
<path d="M23.812 53.3587C24.2889 53.0103 24.7624 52.6649 25.2393 52.3165" stroke="black" stroke-linecap="round" stroke-linejoin="round"/>
<path d="M24.3901 54.0859C24.9372 53.6859 25.4843 53.286 26.0278 52.886" stroke="black" stroke-linecap="round" stroke-linejoin="round"/>
<path d="M24.689 55.2524C25.1273 54.8858 25.6323 54.5798 26.1759 54.3404" stroke="black" stroke-linecap="round" stroke-linejoin="round"/>
<path d="M24.9023 56.1917C25.2635 55.9462 25.6247 55.7008 25.9859 55.4584" stroke="black" stroke-linecap="round" stroke-linejoin="round"/>
<path d="M24.9619 57.3854C25.4353 57.0582 25.9052 56.734 26.3787 56.4067" stroke="black" stroke-linecap="round" stroke-linejoin="round"/>
<path d="M25.0566 58.4883C25.6072 58.0671 26.1613 57.649 26.7119 57.2278" stroke="black" stroke-linecap="round" stroke-linejoin="round"/>
<path d="M25.2563 59.6396C25.8385 59.2942 26.4206 58.9518 27.0027 58.6064" stroke="black" stroke-linecap="round" stroke-linejoin="round"/>
<path d="M25.9331 60.8697C26.403 60.4577 26.9431 60.1032 27.5322 59.8275" stroke="black" stroke-linecap="round" stroke-linejoin="round"/>
<path d="M26.8345 61.7636L28.2793 60.9304" stroke="black" stroke-linecap="round" stroke-linejoin="round"/>
<path d="M27.9673 62.6634C28.332 62.4362 28.6967 62.2089 29.0649 61.9817" stroke="black" stroke-linecap="round" stroke-linejoin="round"/>
<path d="M28.6582 63.6874C29.1036 63.3875 29.5489 63.0905 29.9943 62.7906" stroke="black" stroke-linecap="round" stroke-linejoin="round"/>
<path d="M29.3521 65.0085C29.7308 64.7995 30.0885 64.5571 30.4181 64.2905" stroke="black" stroke-linecap="round" stroke-linejoin="round"/>
<path d="M48.1631 36.7492C48.5103 36.4431 48.8574 36.1371 49.2046 35.8311" stroke="black" stroke-linecap="round" stroke-linejoin="round"/>
<path d="M48.6821 37.7278C49.124 37.2521 49.5694 36.7734 50.0112 36.2977" stroke="black" stroke-linecap="round" stroke-linejoin="round"/>
<path d="M49.4502 38.6973C49.8289 38.2156 50.2042 37.7338 50.5829 37.2551" stroke="black" stroke-linecap="round" stroke-linejoin="round"/>
<path d="M49.8042 39.6093C50.2706 39.0276 50.7405 38.4489 51.2069 37.8671" stroke="black" stroke-linecap="round" stroke-linejoin="round"/>
<path d="M50.2461 40.5183C50.6844 39.9638 51.1228 39.4063 51.5611 38.8519" stroke="black" stroke-linecap="round" stroke-linejoin="round"/>
<path d="M50.856 41.197C51.3189 40.6122 51.7818 40.0305 52.2411 39.4457" stroke="black" stroke-linecap="round" stroke-linejoin="round"/>
<path d="M51.4629 42.4816C52.0485 41.8241 52.6307 41.1697 53.2163 40.5122" stroke="black" stroke-linecap="round" stroke-linejoin="round"/>
<path d="M52.2065 43.4391C52.8027 42.6634 53.4024 41.8878 53.9985 41.1152" stroke="black" stroke-linecap="round" stroke-linejoin="round"/>
<path d="M53.041 44.2238L54.7103 41.6514" stroke="black" stroke-linecap="round" stroke-linejoin="round"/>
<path d="M54.002 44.8297C54.4719 44.0238 54.9383 43.2148 55.4082 42.4058" stroke="black" stroke-linecap="round" stroke-linejoin="round"/>
<path d="M54.9033 45.1448C55.4574 44.3116 56.0115 43.4784 56.5655 42.6422" stroke="black" stroke-linecap="round" stroke-linejoin="round"/>
<path d="M56.0112 45.2781C56.5653 44.4449 57.1194 43.6087 57.6735 42.7755" stroke="black" stroke-linecap="round" stroke-linejoin="round"/>
<path d="M57.603 44.8327C58.0414 44.151 58.4797 43.4693 58.9181 42.7876" stroke="black" stroke-linecap="round" stroke-linejoin="round"/>
<path d="M58.9219 44.5328C59.4198 44.0299 59.781 43.4299 59.9739 42.7906" stroke="black" stroke-linecap="round" stroke-linejoin="round"/>
<path d="M60.7173 43.7935C61.0013 43.3087 61.2819 42.827 61.5659 42.3422" stroke="black" stroke-linecap="round" stroke-linejoin="round"/>
<path d="M62.0776 42.9422C62.2249 42.6392 62.3687 42.3362 62.516 42.0332" stroke="black" stroke-linecap="round" stroke-linejoin="round"/>
<path d="M16.1528 25.4963C16.514 25.1993 16.8752 24.9054 17.2364 24.6085" stroke="black" stroke-linecap="round" stroke-linejoin="round"/>
<path d="M16.8613 26.0659L17.5662 25.3781" stroke="black" stroke-linecap="round" stroke-linejoin="round"/>
<path d="M17.7695 26.6053C18.001 26.3447 18.2289 26.0841 18.4604 25.8266" stroke="black" stroke-linecap="round" stroke-linejoin="round"/>
<path d="M18.7656 26.5719C19.0076 26.3083 19.2496 26.0477 19.4915 25.7841" stroke="black" stroke-linecap="round" stroke-linejoin="round"/>
<path d="M25.916 22.827C26.5437 22.4755 27.1259 22.0665 27.6484 21.609" stroke="black" stroke-linecap="round" stroke-linejoin="round"/>
<path d="M27.834 22.6998L29.0544 21.7272" stroke="black" stroke-linecap="round" stroke-linejoin="round"/>
<path d="M29.0088 22.621C29.363 22.2968 29.7733 22.021 30.2292 21.809" stroke="black" stroke-linecap="round" stroke-linejoin="round"/>
<path d="M30.6499 22.6997C31.0111 22.5513 31.3688 22.4028 31.73 22.2543" stroke="black" stroke-linecap="round" stroke-linejoin="round"/>
<path d="M31.5898 23.0664C32.0738 22.8997 32.5542 22.7331 33.0381 22.5695" stroke="black" stroke-linecap="round" stroke-linejoin="round"/>
<path d="M32.7192 23.439L33.8449 23.1148" stroke="black" stroke-linecap="round" stroke-linejoin="round"/>
<path d="M33.9009 24.1056C34.3217 23.9541 34.7425 23.7996 35.1598 23.6481" stroke="black" stroke-linecap="round" stroke-linejoin="round"/>
<path d="M34.6372 24.6903C35.0896 24.5146 35.5455 24.3389 35.9978 24.1631" stroke="black" stroke-linecap="round" stroke-linejoin="round"/>
<path d="M35.4824 25.3357C35.9734 25.2115 36.4468 25.0327 36.8887 24.8085" stroke="black" stroke-linecap="round" stroke-linejoin="round"/>
<path d="M36.4751 25.9659C36.945 25.8538 37.3869 25.6659 37.7761 25.4114" stroke="black" stroke-linecap="round" stroke-linejoin="round"/>
<path d="M37.2256 26.5265C37.7376 26.3447 38.2531 26.1629 38.7651 25.9811" stroke="black" stroke-linecap="round" stroke-linejoin="round"/>
<path d="M38.5015 27.0718C39.0941 26.8112 39.6868 26.5507 40.2759 26.2901" stroke="black" stroke-linecap="round" stroke-linejoin="round"/>
<path d="M39.7432 27.3929C40.3569 27.0869 40.967 26.7809 41.5807 26.4719" stroke="black" stroke-linecap="round" stroke-linejoin="round"/>
<path d="M41.1353 27.4899C41.6087 27.29 42.0646 27.0688 42.5064 26.8234" stroke="black" stroke-linecap="round" stroke-linejoin="round"/>
<path d="M42.7065 27.5263C42.9275 27.2809 43.2185 27.0809 43.5517 26.9597" stroke="black" stroke-linecap="round" stroke-linejoin="round"/>
<path d="M58.2798 32.3528C58.8584 31.9438 59.437 31.5348 60.0192 31.1257" stroke="black" stroke-linecap="round" stroke-linejoin="round"/>
<path d="M59.6685 32.6043C60.3102 32.1983 60.9484 31.7923 61.5902 31.3863" stroke="black" stroke-linecap="round" stroke-linejoin="round"/>
<path d="M61.5552 33.0951C62.0952 32.7134 62.6318 32.3346 63.1718 31.9529" stroke="black" stroke-linecap="round" stroke-linejoin="round"/>
<path d="M63.2144 33.6951C63.786 33.2558 64.4067 32.8679 65.0695 32.5407" stroke="black" stroke-linecap="round" stroke-linejoin="round"/>
<path d="M65.0059 34.3343C65.6476 33.8677 66.2893 33.3981 66.9346 32.9315" stroke="black" stroke-linecap="round" stroke-linejoin="round"/>
<path d="M66.5562 34.7677C67.1698 34.3647 67.7835 33.9587 68.3972 33.5557" stroke="black" stroke-linecap="round" stroke-linejoin="round"/>
<path d="M68.5239 35.216C69.1832 34.7767 69.8425 34.3343 70.4982 33.895" stroke="black" stroke-linecap="round" stroke-linejoin="round"/>
<path d="M70.4663 35.8735C70.9432 35.516 71.4202 35.1554 71.8971 34.7979" stroke="black" stroke-linecap="round" stroke-linejoin="round"/>
<path d="M72.1743 36.4401C72.6547 36.0977 73.1317 35.7523 73.6121 35.4099" stroke="black" stroke-linecap="round" stroke-linejoin="round"/>
<path d="M73.563 36.9582C74.0224 36.6946 74.4467 36.3886 74.8324 36.0493" stroke="black" stroke-linecap="round" stroke-linejoin="round"/>
<path d="M74.625 37.4975C75.0598 37.24 75.4912 36.9794 75.926 36.7219" stroke="black" stroke-linecap="round" stroke-linejoin="round"/>
<path d="M75.3579 38.2065C75.8524 37.9369 76.3468 37.6702 76.8413 37.4006" stroke="black" stroke-linecap="round" stroke-linejoin="round"/>
<path d="M76.0176 39.1548C76.6278 38.9518 77.2169 38.6973 77.7675 38.3943" stroke="black" stroke-linecap="round" stroke-linejoin="round"/>
<path d="M76.7642 40.1001C77.2446 39.885 77.7285 39.6699 78.209 39.4548" stroke="black" stroke-linecap="round" stroke-linejoin="round"/>
<path d="M77.2026 41.1636C77.669 40.9091 78.1354 40.6546 78.5983 40.3971" stroke="black" stroke-linecap="round" stroke-linejoin="round"/>
<path d="M77.7886 42.2877C78.1813 42.118 78.5706 41.9484 78.9634 41.7787" stroke="black" stroke-linecap="round" stroke-linejoin="round"/>
<path d="M77.9951 43.6693C78.3879 43.4663 78.7841 43.2633 79.1769 43.0603" stroke="black" stroke-linecap="round" stroke-linejoin="round"/>
<path d="M78.1743 44.7722C78.6232 44.5419 79.0756 44.3116 79.5244 44.0814" stroke="black" stroke-linecap="round" stroke-linejoin="round"/>
<path d="M78.5283 45.5508C79.0789 45.3963 79.6119 45.1994 80.1239 44.9661" stroke="black" stroke-linecap="round" stroke-linejoin="round"/>
<path d="M78.8403 46.7506C79.198 46.5416 79.5592 46.3295 79.9169 46.1204" stroke="black" stroke-linecap="round" stroke-linejoin="round"/>
<path d="M79.1528 47.5505C79.5105 47.3263 79.8682 47.1051 80.2259 46.8809" stroke="black" stroke-linecap="round" stroke-linejoin="round"/>
<path d="M79.7559 48.3686C80.0469 48.1383 80.3345 47.9111 80.6255 47.6808" stroke="black" stroke-linecap="round" stroke-linejoin="round"/>
<path d="M80.3203 48.8261C80.5693 48.7352 80.7622 48.5413 80.8358 48.3171" stroke="black" stroke-linecap="round" stroke-linejoin="round"/>
<path d="M90.7046 40.1759C91.1429 39.9577 91.5778 39.7426 92.0161 39.5245" stroke="black" stroke-linecap="round" stroke-linejoin="round"/>
<path d="M91.4897 40.8182C91.9877 40.5546 92.4857 40.291 92.9836 40.0244" stroke="black" stroke-linecap="round" stroke-linejoin="round"/>
<path d="M92.2822 41.6545C92.8573 41.3848 93.4009 41.0667 93.9024 40.7061" stroke="black" stroke-linecap="round" stroke-linejoin="round"/>
<path d="M92.731 42.5817C93.3131 42.2878 93.8637 41.9484 94.3827 41.5757" stroke="black" stroke-linecap="round" stroke-linejoin="round"/>
<path d="M93.4639 43.8117C93.8742 43.5209 94.281 43.23 94.6912 42.9391" stroke="black" stroke-linecap="round" stroke-linejoin="round"/>
<path d="M93.8145 44.8327C94.337 44.4783 94.863 44.1207 95.3855 43.7662" stroke="black" stroke-linecap="round" stroke-linejoin="round"/>
<path d="M94.3865 45.4418C94.3549 45.4721 94.383 45.5266 94.4286 45.5327C94.923 45.1842 95.4175 44.8358 95.9119 44.4874" stroke="black" stroke-linecap="round" stroke-linejoin="round"/>
<path d="M94.9263 46.3265C95.4312 45.9175 95.9397 45.5085 96.4447 45.0994" stroke="black" stroke-linecap="round" stroke-linejoin="round"/>
<path d="M30.3413 13.2436C30.5833 13.0103 30.8252 12.7801 31.0672 12.5468" stroke="black" stroke-linecap="round" stroke-linejoin="round"/>
<path d="M30.9692 13.7102C31.355 13.2648 31.7407 12.8164 32.1265 12.371" stroke="black" stroke-linecap="round" stroke-linejoin="round"/>
<path d="M31.9761 13.798L32.7125 12.5831" stroke="black" stroke-linecap="round" stroke-linejoin="round"/>
<path d="M35.6226 12.1256C36.0539 11.7983 36.4572 11.4499 36.8394 11.0803" stroke="black" stroke-linecap="round" stroke-linejoin="round"/>
<path d="M36.8535 12.0437C37.2147 11.7559 37.5759 11.465 37.9336 11.1772" stroke="black" stroke-linecap="round" stroke-linejoin="round"/>
<path d="M37.6846 12.4255C38.0282 12.1831 38.3754 11.9408 38.7191 11.6984" stroke="black" stroke-linecap="round" stroke-linejoin="round"/>
<path d="M38.2002 13.0163C38.5824 12.7527 38.7893 12.6073 39.1716 12.3437" stroke="black" stroke-linecap="round" stroke-linejoin="round"/>
<path d="M38.228 13.8041C38.6559 13.5617 39.0837 13.3163 39.5115 13.0739" stroke="black" stroke-linecap="round" stroke-linejoin="round"/>
<path d="M37.9585 14.6404C38.4915 14.401 39.0035 14.1283 39.491 13.8284" stroke="black" stroke-linecap="round" stroke-linejoin="round"/>
<path d="M17.0786 12.9164C17.4258 12.4104 17.773 11.9014 18.1201 11.3954" stroke="black" stroke-linecap="round" stroke-linejoin="round"/>
<path d="M18.1519 12.677C18.5727 12.1074 18.9935 11.5378 19.4178 10.9682" stroke="black" stroke-linecap="round" stroke-linejoin="round"/>
<path d="M19.6597 12.1438C19.9297 11.756 20.1682 11.35 20.3751 10.9349" stroke="black" stroke-linecap="round" stroke-linejoin="round"/>
<path d="M80.3867 73.5041C81.1722 73.0951 81.9543 72.6891 82.7398 72.2801" stroke="black" stroke-linecap="round" stroke-linejoin="round"/>
<path d="M80.0502 74.804C80.0608 74.7767 79.9976 74.7646 79.9871 74.7949C79.9766 74.8222 80.0152 74.8494 80.0467 74.8494C80.0818 74.8494 80.1099 74.8282 80.1344 74.81C80.9129 74.2465 81.7545 73.7496 82.6488 73.3315" stroke="black" stroke-linecap="round" stroke-linejoin="round"/>
<path d="M80.0225 75.9492C80.8185 75.5463 81.583 75.0978 82.3089 74.601" stroke="black" stroke-linecap="round" stroke-linejoin="round"/>
<path d="M79.8364 77.046C80.7447 76.6218 81.6249 76.1492 82.4665 75.6341" stroke="black" stroke-linecap="round" stroke-linejoin="round"/>
<path d="M79.6646 78.2822C80.4431 77.8429 81.2216 77.4005 82.0001 76.9612" stroke="black" stroke-linecap="round" stroke-linejoin="round"/>
<path d="M56.7023 38.8185C55.4153 38.3004 54.4194 37.2763 54.0512 36.0916C53.683 34.907 53.9495 33.589 54.7596 32.5831" stroke="black" stroke-linecap="round" stroke-linejoin="round"/>
<path d="M59.8057 38.9367C60.507 38.6367 61.2329 38.3337 62.015 38.2852C62.797 38.2368 63.6561 38.5034 64.0243 39.1003" stroke="black" stroke-linecap="round" stroke-linejoin="round"/>
<path d="M95.5996 38.1429C96.1432 37.4733 96.6972 36.7855 96.9357 35.9947C97.1742 35.2039 97.0409 34.2768 96.3571 33.7102" stroke="black" stroke-linecap="round" stroke-linejoin="round"/>
<path d="M42.5698 12.1589C43.0047 13.1194 44.3828 13.5526 45.5576 13.3799C46.7359 13.2072 47.7424 12.574 48.6752 11.9286C49.6045 11.2833 50.5338 10.5894 51.663 10.2562" stroke="black" stroke-linecap="round" stroke-linejoin="round"/>
</svg>
